<svg enable-background="new 0 0 128 128" viewBox="0 0 128 128" xmlns="http://www.w3.org/2000/svg"><linearGradient id="a" gradientTransform="matrix(.7071 -.7071 .7071 .7071 -26.51 64)" gradientUnits="userSpaceOnUse" x1="63.999" x2="63.999" y1="11.93" y2="67.27"><stop offset=".1693" stop-color="#795649"/><stop offset=".7938" stop-color="#5d4137"/></linearGradient><linearGradient id="b" gradientUnits="userSpaceOnUse" x1="71.76" x2="103.77" y1="71.684" y2="103.69"><stop offset=".0267" stop-color="#c62828"/><stop offset=".7214" stop-color="#e53a35"/></linearGradient><linearGradient id="c" gradientTransform="matrix(.7071 -.7071 .7071 .7071 -26.51 64)" gradientUnits="userSpaceOnUse" x1="63.296" x2="61.637" y1="86.509" y2="94.369"><stop offset=".3" stop-color="#434343"/><stop offset=".7938" stop-color="#434343" stop-opacity="0"/></linearGradient><linearGradient id="d" gradientUnits="userSpaceOnUse" x1="59.073" x2="81.167" y1="59.162" y2="81.256"><stop offset=".1693" stop-color="#eceff0"/><stop offset=".7938" stop-color="#d0d8dc"/></linearGradient><path d="m121.59 82.61-38.91 38.76c-2.35 2.34-6.17 2.34-8.52 0l-68.4-68.13c-2.35-2.34-2.35-6.14 0-8.49l38.92-38.75c2.35-2.34 6.17-2.34 8.52 0l68.4 68.12c2.35 2.34 2.35 6.14-.01 8.49z" fill="url(#a)"/><path d="m48.94 7.24c.81 0 1.57.31 2.14.88l68.4 68.12c.57.57.88 1.32.88 2.12s-.31 1.55-.88 2.12l-38.91 38.76c-.57.57-1.33.88-2.14.88s-1.57-.31-2.14-.88l-68.41-68.13c-.57-.56-.88-1.31-.88-2.11s.31-1.55.88-2.12l38.91-38.76c.58-.56 1.34-.88 2.15-.88m0-3c-1.54 0-3.08.59-4.26 1.76l-38.92 38.75c-2.35 2.34-2.35 6.14 0 8.49l68.4 68.12c1.18 1.17 2.72 1.76 4.26 1.76s3.08-.59 4.26-1.76l38.91-38.76c2.35-2.34 2.35-6.14 0-8.49l-68.39-68.11c-1.18-1.17-2.72-1.76-4.26-1.76z" fill="#434343" opacity=".2"/><path d="m122.24 81.97-40.2 40.03c-2.35 2.34-6.17 2.34-8.52 0l-29.94-29.82c-2.35-2.34-2.35-6.14 0-8.49l40.19-40.03c2.35-2.34 6.17-2.34 8.52 0l29.94 29.82c2.36 2.35 2.36 6.15.01 8.49z" fill="url(#b)"/><path d="m28.75 36.52-.01-5.12-18.19 18.12 18.19 18.11.01-5.11-13.05-13z" fill="#8d6e63"/><path d="m28.75 36.52 13.06 13-13.06 13 .01 5.11 18.19-18.11-18.19-18.12z" fill="#6d4d42"/><path d="m28.75 36.52-13.05 13 13.05 13 13.06-13z" fill="#795649"/><path d="m49.73 15.62-.01-5.12-18.19 18.12 18.19 18.12.01-5.12-13.05-13z" fill="#8d6e63"/><path d="m49.73 15.62 13.06 13-13.06 13 .01 5.12 18.19-18.12-18.19-18.12z" fill="#6d4d42"/><path d="m49.73 15.62-13.05 13 13.05 13 13.06-13z" fill="#795649"/><path d="m50.33 58.01v-5.12l-18.2 18.12 18.2 18.12v-5.12l-13.05-13z" fill="#795649"/><path d="m50.33 58.01 13.06 13-13.06 13 .01 5.12 18.19-18.12-18.19-18.12z" fill="#5d4137"/><path d="m50.33 58.01-13.05 13 13.05 13 13.06-13z" fill="#6d4d42"/><path d="m71.31 37.11-.01-5.11-18.19 18.12 18.19 18.11.01-5.11-13.05-13z" fill="#795649"/><path d="m71.31 37.11 13.06 13.01-13.06 13 .01 5.11 18.19-18.11-18.19-18.12z" fill="#5d4137"/><path d="m71.31 37.11-13.05 13.01 13.05 13 13.06-13z" fill="#6d4d42"/><path d="m109.79 68.59-53.82 36.15-11.4-11.35c-1.57-1.57-1.45-4.23.27-5.94l42.59-42.42c1.72-1.71 4.39-1.83 5.97-.27l17.37 17.3c1.81 1.81 1.33 4.98-.98 6.53z" fill="url(#c)" opacity=".4"/><path d="m88.04 44.91c.81 0 1.57.31 2.14.88l29.94 29.82c.57.57.88 1.32.88 2.12s-.31 1.55-.88 2.12l-40.19 40.03c-.57.57-1.33.88-2.14.88s-1.57-.31-2.14-.88l-29.95-29.82c-.57-.57-.88-1.32-.88-2.12s.31-1.55.88-2.12l40.19-40.03c.58-.57 1.34-.88 2.15-.88m0-3c-1.54 0-3.08.59-4.26 1.76l-40.2 40.03c-2.35 2.34-2.35 6.14 0 8.49l29.94 29.81c1.18 1.17 2.72 1.76 4.26 1.76s3.08-.59 4.26-1.76l40.19-40.03c2.35-2.34 2.35-6.14 0-8.49l-29.93-29.82c-1.18-1.17-2.72-1.75-4.26-1.75z" fill="#434343" opacity=".2"/><path d="m106.57 62.92-56.84 38.54-11.8-11.75c-1.63-1.62-1.47-4.41.35-6.23l45.15-44.97c1.82-1.82 4.62-1.98 6.25-.35l17.99 17.91c1.88 1.87 1.35 5.19-1.1 6.85z" fill="url(#d)"/><path d="m86.89 40.04c.2 0 .48.04.68.25l17.99 17.91c.23.23.26.56.24.8-.05.55-.39 1.09-.91 1.44l-54.8 37.15-10.04-10c-.16-.16-.24-.38-.24-.66 0-.46.22-.93.6-1.31l45.15-44.97c.38-.39.86-.61 1.33-.61m0-3c-1.21 0-2.47.5-3.45 1.47l-45.16 44.97c-1.82 1.82-1.98 4.61-.35 6.23l11.8 11.75 56.84-38.54c2.45-1.66 2.98-4.98 1.11-6.85l-17.99-17.91c-.75-.75-1.76-1.12-2.8-1.12z" fill="#434343" opacity=".2"/></svg>
